<svg width="24" height="33" viewBox="0 0 24 33" fill="none" xmlns="http://www.w3.org/2000/svg">
<path d="M19.9365 11.9998C19.9365 9.89489 19.1004 7.87621 17.612 6.38782C16.1236 4.89944 14.1049 4.06328 12 4.06328C9.89513 4.06328 7.87645 4.89944 6.38807 6.38782C4.89968 7.87621 4.06352 9.89489 4.06352 11.9998C4.06352 14.7395 6.69844 19.9855 12 27.322C17.3016 19.9855 19.9365 14.7395 19.9365 11.9998ZM12 32.6347C4.59209 22.968 0.888916 16.0903 0.888916 11.9998C0.888916 9.05293 2.05955 6.22678 4.14328 4.14304C6.22702 2.0593 9.05318 0.888672 12 0.888672C14.9469 0.888672 17.773 2.0593 19.8568 4.14304C21.9405 6.22678 23.1111 9.05293 23.1111 11.9998C23.1111 16.0903 19.408 22.968 12 32.6347ZM12 18.349C10.3161 18.349 8.70117 17.6801 7.51046 16.4894C6.31975 15.2986 5.65082 13.6837 5.65082 11.9998C5.65082 10.3159 6.31975 8.70092 7.51046 7.51022C8.70117 6.31951 10.3161 5.65058 12 5.65058C13.6839 5.65058 15.2989 6.31951 16.4896 7.51022C17.6803 8.70092 18.3492 10.3159 18.3492 11.9998C18.3492 13.6837 17.6803 15.2986 16.4896 16.4894C15.2989 17.6801 13.6839 18.349 12 18.349ZM12 15.1744C12.842 15.1744 13.6495 14.8399 14.2448 14.2446C14.8402 13.6492 15.1746 12.8417 15.1746 11.9998C15.1746 11.1578 14.8402 10.3504 14.2448 9.755C13.6495 9.15965 12.842 8.82518 12 8.82518C11.1581 8.82518 10.3506 9.15965 9.75524 9.755C9.15989 10.3504 8.82542 11.1578 8.82542 11.9998C8.82542 12.8417 9.15989 13.6492 9.75524 14.2446C10.3506 14.8399 11.1581 15.1744 12 15.1744Z" fill="white"/>
</svg>
