<svg width="34" height="24" viewBox="0 0 34 24" fill="none" xmlns="http://www.w3.org/2000/svg">
<path d="M3.85713 9.93886V20.2856H30.1428V9.93886L25.2783 3.857H8.71998L3.85713 9.93886ZM0.571411 8.78558L7.14284 0.571289H26.8571L33.4286 8.78558V20.2856C33.4286 21.157 33.0824 21.9927 32.4662 22.6089C31.85 23.2251 31.0143 23.5713 30.1428 23.5713H3.85713C2.9857 23.5713 2.14997 23.2251 1.53377 22.6089C0.917584 21.9927 0.571411 21.157 0.571411 20.2856V8.78558ZM23.3644 12.0713C22.999 13.4813 22.1757 14.73 21.0238 15.6214C19.8719 16.5128 18.4565 16.9965 17 16.9965C15.5434 16.9965 14.1281 16.5128 12.9762 15.6214C11.8243 14.73 11.001 13.4813 10.6356 12.0713H3.85713V8.78558H30.1428V12.0713H23.3644ZM19.8454 12.0713H14.1546C14.4429 12.5707 14.8577 12.9855 15.3572 13.2738C15.8567 13.5622 16.4232 13.714 17 13.714C17.5767 13.714 18.1433 13.5622 18.6428 13.2738C19.1422 12.9855 19.557 12.5707 19.8454 12.0713Z" fill="white"/>
</svg>
