<svg width="20" height="32" viewBox="0 0 20 32" fill="none" xmlns="http://www.w3.org/2000/svg">
<path d="M5.42852 0.285645H14.8571C16.1074 0.285645 17.3065 0.782327 18.1906 1.66643C19.0747 2.55053 19.5714 3.74962 19.5714 4.99993V26.9999C19.5714 28.2502 19.0747 29.4493 18.1906 30.3334C17.3065 31.2175 16.1074 31.7142 14.8571 31.7142H5.42852C4.17821 31.7142 2.97912 31.2175 2.09502 30.3334C1.21092 29.4493 0.714233 28.2502 0.714233 26.9999L0.714233 4.99993C0.714233 3.74962 1.21092 2.55053 2.09502 1.66643C2.97912 0.782327 4.17821 0.285645 5.42852 0.285645ZM5.42852 3.4285C5.01175 3.4285 4.61205 3.59406 4.31735 3.88876C4.02265 4.18346 3.85709 4.58316 3.85709 4.99993V26.9999C3.85709 27.4167 4.02265 27.8164 4.31735 28.1111C4.61205 28.4058 5.01175 28.5714 5.42852 28.5714H14.8571C15.2739 28.5714 15.6736 28.4058 15.9683 28.1111C16.263 27.8164 16.4285 27.4167 16.4285 26.9999V4.99993C16.4285 4.58316 16.263 4.18346 15.9683 3.88876C15.6736 3.59406 15.2739 3.4285 14.8571 3.4285H5.42852ZM10.1428 26.9999C9.72604 26.9999 9.32634 26.8344 9.03164 26.5397C8.73694 26.245 8.57138 25.8453 8.57138 25.4285C8.57138 25.0117 8.73694 24.612 9.03164 24.3173C9.32634 24.0226 9.72604 23.8571 10.1428 23.8571C10.5596 23.8571 10.9593 24.0226 11.254 24.3173C11.5487 24.612 11.7142 25.0117 11.7142 25.4285C11.7142 25.8453 11.5487 26.245 11.254 26.5397C10.9593 26.8344 10.5596 26.9999 10.1428 26.9999Z" fill="white"/>
</svg>
